#!OML:ASF X:\für Bonn\!DataBase\2005_08_11_Bastian_Final\c3d\Bastian.ASF
:FULLY-SPECIFIED
:DEGREES
166
root -1.81563 16.9317 -15.2392 158.943 22.979 -181.52
lowerback 8.03735 -3.57966 1.19284
upperback 10.885 -3.53562 -1.13707
thorax 6.77125 -1.12041 -1.72144
lowerneck -2.70661 2.9932 -11.3622
upperneck -0.434983 4.39078 2.22072
head 0.0157106 2.25138 2.71081
rclavicle -3.60297e-014 8.54774e-015
rhumerus -59.8839 17.4579 -94.8187
rradius 108.757
rwrist 7.06743
rhand -15.2815 11.8742
rfingers 7.12502
rthumb 10.8932 -17.8232
lclavicle -3.60297e-014 8.54774e-015
lhumerus -27.9395 -29.2683 99.1183
lradius 124.958
lwrist 34.2209
lhand -9.65122 -17.6177
lfingers 7.12502
lthumb 16.3195 11.7156
rfemur 17.3796 12.2009 22.173
rtibia 35.8828
rfoot -206.242 -178.637
rtoes -5.92631
lfemur -13.6629 10.6555 -2.43794
ltibia 75.9636
lfoot 5.53749 12.7655
ltoes -17.2639
167
root -1.85406 16.8906 -15.3259 159.524 22.7307 -181.201
lowerback 7.61208 -3.67587 0.916436
upperback 10.7275 -3.73232 -0.962846
thorax 6.86022 -1.26637 -1.40071
lowerneck -2.97836 2.96658 -11.3622
upperneck -0.490861 4.3814 2.55611
head 0.0378391 2.24868 2.83036
rclavicle -5.82688e-014 3.598e-014
rhumerus -59.5108 16.726 -94.9462
rradius 108.96
rwrist 7.06606
rhand -14.7574 11.9136
rfingers 7.12502
rthumb 11.3988 -17.7565
lclavicle -5.82688e-014 3.598e-014
lhumerus -27.9491 -29.9508 99.2245
lradius 124.826
lwrist 34.5116
lhand -9.37741 -17.6688
lfingers 7.12502
lthumb 16.5831 11.6427
rfemur 16.9081 12.1295 22.208
rtibia 36.5159
rfoot -206.897 -179.046
rtoes -6.43731
lfemur -12.0238 9.17189 -2.84901
ltibia 73.6388
lfoot 3.73818 11.9677
ltoes -18.0294
168
root -1.8942 16.8476 -15.4129 160.067 22.4607 -180.924
lowerback 7.21538 -3.75756 0.656659
upperback 10.5757 -3.90189 -0.815418
thorax 6.94124 -1.39444 -1.11868
lowerneck -3.18591 2.91588 -11.2963
upperneck -0.587483 4.33158 2.81211
head 0.0423001 2.22734 2.90897
rclavicle -4.07509e-015 -4.57205e-015
rhumerus -59.1443 15.9634 -95.1581
rradius 109.261
rwrist 7.11523
rhand -14.2239 11.974
rfingers 7.12502
rthumb 11.9133 -17.6671
lclavicle -4.07509e-015 -4.57205e-015
lhumerus -27.8469 -30.6113 99.2426
lradius 124.607
lwrist 34.8162
lhand -9.15807 -17.6739
lfingers 7.12502
lthumb 16.7943 11.6198
rfemur 16.4053 12.0765 22.2004
rtibia 37.2468
rfoot -207.559 -179.381
rtoes -6.63402
lfemur -10.402 8.04187 -3.25559
ltibia 71.3213
lfoot 1.84388 11.2949
ltoes -17.9204
169
root -1.93728 16.8003 -15.4993 160.587 22.1077 -180.697
lowerback 6.82278 -3.84147 0.403064
upperback 10.427 -4.06824 -0.708074
thorax 7.02353 -1.51732 -0.883812
lowerneck -3.31133 2.85524 -11.1923
upperneck -0.751269 4.25777 3.04735
head 0.0141196 2.19593 2.97076
rclavicle 3.17559e-014 -1.53064e-014
rhumerus -58.7392 15.1872 -95.4103
rradius 109.616
rwrist 7.22195
rhand -13.6822 12.0301
rfingers 7.12502
rthumb 12.4355 -17.58
lclavicle 3.17559e-014 -1.53064e-014
lhumerus -27.6836 -31.2756 99.1998
lradius 124.373
lwrist 35.167
lhand -9.0271 -17.7519
lfingers 7.12502
lthumb 16.9204 11.531
rfemur 15.8854 12.0138 22.1313
rtibia 38.0168
rfoot -208.176 -179.688
rtoes -6.74351
lfemur -8.87755 7.30947 -3.69363
ltibia 69.05
lfoot -0.0421335 10.7364
ltoes -19.2671
170
root -1.98163 16.7532 -15.5845 161.059 21.7502 -180.479
lowerback 6.50767 -3.91344 0.180447
upperback 10.2828 -4.21069 -0.609403
thorax 7.0669 -1.62368 -0.672467
lowerneck -3.44213 2.77304 -11.0968
upperneck -0.875961 4.15732 3.27764
head 0.00162296 2.15013 3.0332
rclavicle 3.27249e-014 9.93923e-016
rhumerus -58.28 14.4046 -95.7351
rradius 109.919
rwrist 7.4669
rhand -13.3078 12.2144
rfingers 7.12502
rthumb 12.7965 -17.3734
lclavicle 3.27249e-014 9.93923e-016
lhumerus -27.408 -31.9828 99.143
lradius 124.05
lwrist 35.4998
lhand -8.95302 -17.843
lfingers 7.12502
lthumb 16.9917 11.4339
rfemur 15.415 12.0359 22.1175
rtibia 38.7983
rfoot -208.733 -180.083
rtoes -6.9696
lfemur -7.37745 6.97179 -4.09319
ltibia 66.8256
lfoot -1.93865 10.4305
ltoes -23.1976
171
root -2.0269 16.7192 -15.6705 161.487 21.3243 -180.333
lowerback 6.20147 -3.99292 -0.0711939
upperback 10.1606 -4.35508 -0.558814
thorax 7.13022 -1.72845 -0.496614
lowerneck -3.53985 2.67284 -10.9608
upperneck -1.04437 4.0289 3.4726
head -0.0266999 2.0915 3.07462
rclavicle -1.15817e-013 1.74931e-014
rhumerus -57.7217 13.6793 -96.1435
rradius 110.163
rwrist 7.7675
rhand -13.0608 12.5012
rfingers 7.12502
rthumb 13.0345 -17.0715
lclavicle -1.15817e-013 1.74931e-014
lhumerus -27.0305 -32.726 99.0018
lradius 123.699
lwrist 35.816
lhand -9.02967 -17.9973
lfingers 7.12502
lthumb 16.9179 11.2858
rfemur 14.9931 12.0837 22.0583
rtibia 39.5513
rfoot -209.207 -180.543
rtoes -7.12291
lfemur -5.95701 6.77705 -4.57861
ltibia 64.6774
lfoot -4.06427 10.4647
ltoes -27.4981
172
root -2.07837 16.6853 -15.7562 161.885 20.8855 -180.193
lowerback 5.96379 -4.06262 -0.241709
upperback 10.0365 -4.48031 -0.518235
thorax 7.14665 -1.81622 -0.372456
lowerneck -3.62484 2.54737 -10.831
upperneck -1.19555 3.86643 3.66032
head -0.0488565 2.01527 3.11465
rclavicle 3.46879e-014 -7.35503e-015
rhumerus -57.1104 13.0098 -96.5978
rradius 110.369
rwrist 8.0412
rhand -12.997 12.8919
rfingers 7.12502
rthumb 13.0961 -16.6769
lclavicle 3.46879e-014 -7.35503e-015
lhumerus -26.5931 -33.5169 98.8326
lradius 123.35
lwrist 36.1505
lhand -9.1809 -18.1478
lfingers 7.12502
lthumb 16.7723 11.1477
rfemur 14.6186 12.1774 22.0081
rtibia 40.2787
rfoot -209.564 -180.964
rtoes -7.00325
lfemur -4.59959 6.69807 -5.0828
ltibia 62.608
lfoot -6.44853 10.7694
ltoes -31.1436
173
root -2.13649 16.6502 -15.8412 162.247 20.3862 -180.137
lowerback 5.75226 -4.14566 -0.418725
upperback 9.92471 -4.61673 -0.528449
thorax 7.15918 -1.90619 -0.297098
lowerneck -3.6949 2.4141 -10.7434
upperneck -1.3656 3.69457 3.88105
head -0.0802941 1.93515 3.17357
rclavicle -7.96505e-014 4.55217e-014
rhumerus -56.3555 12.5648 -97.1215
rradius 110.513
rwrist 8.27921
rhand -13.1338 13.2925
rfingers 7.12502
rthumb 12.9643 -16.2847
lclavicle -7.96505e-014 4.55217e-014
lhumerus -26.0471 -34.316 98.6204
lradius 122.971
lwrist 36.4522
lhand -9.34096 -18.322
lfingers 7.12502
lthumb 16.6182 10.9865
rfemur 14.2331 12.2126 21.8138
rtibia 41.0099
rfoot -209.815 -181.373
rtoes -6.6565
lfemur -3.36946 6.74404 -5.66767
ltibia 60.6736
lfoot -8.99678 11.175
ltoes -33.7815
174
root -2.20075 16.6156 -15.9256 162.597 19.8437 -180.127
lowerback 5.58815 -4.21847 -0.600492
upperback 9.79154 -4.73907 -0.554771
thorax 7.12122 -1.98938 -0.232548
lowerneck -3.70409 2.26912 -10.6302
upperneck -1.5392 3.50002 4.06151
head -0.120245 1.84288 3.21258
rclavicle 7.36124e-014 -1.09332e-014
rhumerus -55.51 12.3998 -97.6815
rradius 110.622
rwrist 8.42189
rhand -13.488 13.5821
rfingers 7.12502
rthumb 12.6227 -16.0165
lclavicle 7.36124e-014 -1.09332e-014
lhumerus -25.4566 -35.1686 98.3697
lradius 122.591
lwrist 36.7576
lhand -9.5616 -18.4827
lfingers 7.12502
lthumb 16.4058 10.8435
rfemur 13.7942 12.1918 21.5335
rtibia 41.8051
rfoot -209.969 -181.842
rtoes -6.34344
lfemur -2.32345 6.91876 -6.27694
ltibia 58.9483
lfoot -11.5655 11.5041
ltoes -36.0307
175
root -2.26963 16.5764 -16.0052 162.896 19.2784 -180.168
lowerback 5.49858 -4.27965 -0.808303
upperback 9.67539 -4.83855 -0.606464
thorax 7.06036 -2.05936 -0.175589
lowerneck -3.70074 2.10203 -10.5113
upperneck -1.74374 3.2763 4.23461
head -0.169583 1.73678 3.24749
rclavicle 1.30167e-013 -4.37326e-014
rhumerus -54.5703 12.5102 -98.2674
rradius 110.749
rwrist 8.38453
rhand -13.9765 13.7694
rfingers 7.12502
rthumb 12.1517 -15.8577
lclavicle 1.30167e-013 -4.37326e-014
lhumerus -24.7963 -36.0865 98.0821
lradius 122.237
lwrist 37.0985
lhand -9.79581 -18.6485
lfingers 7.12502
lthumb 16.1803 10.6962
rfemur 13.3 12.1206 21.1778
rtibia 42.7207
rfoot -210.009 -182.339
rtoes -5.9473
lfemur -1.4331 7.24791 -6.85431
ltibia 57.512
lfoot -14.1049 11.596
ltoes -37.6342
176
root -2.3428 16.5337 -16.0791 163.152 18.6769 -180.214
lowerback 5.5085 -4.34481 -1.01016
upperback 9.57774 -4.93591 -0.676987
thorax 6.9616 -2.12413 -0.135016
lowerneck -3.69951 1.92502 -10.365
upperneck -1.94394 3.03961 4.42003
head -0.215666 1.62368 3.2816
rclavicle 3.66882e-014 -1.58034e-014
rhumerus -53.5615 12.824 -98.8752
rradius 110.858
rwrist 8.30556
rhand -14.6344 13.9664
rfingers 7.12502
rthumb 11.5173 -15.6972
lclavicle 3.66882e-014 -1.58034e-014
lhumerus -24.0872 -36.9993 97.7442
lradius 121.877
lwrist 37.4058
lhand -9.9885 -18.8169
lfingers 7.12502
lthumb 15.9947 10.5428
rfemur 12.7339 11.9643 20.7953
rtibia 43.7957
rfoot -209.912 -183.002
rtoes -6.02751
lfemur -0.722899 7.68017 -7.35693
ltibia 56.4147
lfoot -16.5598 11.4234
ltoes -38.4608
177
root -2.41815 16.4878 -16.146 163.335 18.0487 -180.291
lowerback 5.6866 -4.3911 -1.24896
upperback 9.46981 -5.00501 -0.757532
thorax 6.75917 -2.17498 -0.071534
lowerneck -3.64145 1.734 -10.2741
upperneck -2.16872 2.78196 4.65996
head -0.279576 1.50029 3.34449
rclavicle -3.04948e-014 -1.68967e-015
rhumerus -52.6216 13.2441 -99.473
rradius 111.087
rwrist 8.12731
rhand -15.2857 14.1051
rfingers 7.12502
rthumb 10.8892 -15.5926
lclavicle -3.04948e-014 -1.68967e-015
lhumerus -23.429 -37.8418 97.4593
lradius 121.514
lwrist 37.7026
lhand -10.0568 -18.9129
lfingers 7.12502
lthumb 15.9289 10.4521
rfemur 12.0995 11.742 20.3784
rtibia 45.0759
rfoot -209.664 -183.833
rtoes -6.36548
lfemur -0.190982 8.19682 -7.78266
ltibia 55.6422
lfoot -18.6436 11.0841
ltoes -38.5632
178
root -2.49496 16.4398 -16.2074 163.448 17.4089 -180.361
lowerback 5.99832 -4.44686 -1.5136
upperback 9.39006 -5.08114 -0.832532
thorax 6.51625 -2.22693 0.0211707
lowerneck -3.57137 1.54242 -10.1724
upperneck -2.42432 2.52459 4.86256
head -0.354471 1.37752 3.39238
rclavicle 1.60332e-014 -1.86858e-014
rhumerus -51.6706 13.8225 -100.069
rradius 111.321
rwrist 7.89465
rhand -15.9519 14.3264
rfingers 7.12502
rthumb 10.2466 -15.404
lclavicle 1.60332e-014 -1.86858e-014
lhumerus -22.7861 -38.5513 97.2467
lradius 121.112
lwrist 37.8794
lhand -10.0203 -19.0341
lfingers 7.12502
lthumb 15.9641 10.328
rfemur 11.3839 11.4745 19.9976
rtibia 46.5879
rfoot -209.249 -184.931
rtoes -7.35942
lfemur 0.190677 8.76929 -8.09035
ltibia 55.1439
lfoot -20.2327 10.6133
ltoes -38.5465
